PathFileType	4	(X/Y/Z)	Walk10.trc
DataRate	CameraRate	NumFrames	NumMarkers	Units	OrigDataRate	OrigDataStartFrame	OrigNumFrames
200.000000	200.000000	4	60	mm	200.000000	439	568
Frame#	Times		LFHD		RFHD		CLAV		STRN		LASI		RASI		RACR1		RUA1		RElbow		RFA1		RWRR		RWRU		RCAR		LACR1		LUA1		LElbow		LFA1		LWRR		LWRU		LCAR		RTH2		RTB1		RTB2		LTH1		LTH3		LTH2		LLFC		LMFC		LTB1		LTB2		LTB4		LMT1		RTB4		LTB3		RTH3		RTB3		LToe		RMFC		LTH4		RElbowM		RTH4		RToe		RTH1		RMT1		RMMAL		RLFC		LBHD		RCAL		RBack		LMT5		RLMAL		RPSI		LMMAL		T10		C7		LPSI		LLMAL		LElbowM		LCAL		RBHD
			X1	Y1	Z1	X2	Y2	Z2	X3	Y3	Z3	X4	Y4	Z4	X5	Y5	Z5	X6	Y6	Z6	X7	Y7	Z7	X8	Y8	Z8	X9	Y9	Z9	X10	Y10	Z10	X11	Y11	Z11	X12	Y12	Z12	X13	Y13	Z13	X14	Y14	Z14	X15	Y15	Z15	X16	Y16	Z16	X17	Y17	Z17	X18	Y18	Z18	X19	Y19	Z19	X20	Y20	Z20	X21	Y21	Z21	X22	Y22	Z22	X23	Y23	Z23	X24	Y24	Z24	X25	Y25	Z25	X26	Y26	Z26	X27	Y27	Z27	X28	Y28	Z28	X29	Y29	Z29	X30	Y30	Z30	X31	Y31	Z31	X32	Y32	Z32	X33	Y33	Z33	X34	Y34	Z34	X35	Y35	Z35	X36	Y36	Z36	X37	Y37	Z37	X38	Y38	Z38	X39	Y39	Z39	X40	Y40	Z40	X41	Y41	Z41	X42	Y42	Z42	X43	Y43	Z43	X44	Y44	Z44	X45	Y45	Z45	X46	Y46	Z46	X47	Y47	Z47	X48	Y48	Z48	X49	Y49	Z49	X50	Y50	Z50	X51	Y51	Z51	X52	Y52	Z52	X53	Y53	Z53	X54	Y54	Z54	X55	Y55	Z55	X56	Y56	Z56	X57	Y57	Z57	X58	Y58	Z58	X59	Y59	Z59	X60	Y60	Z60

439	2.195	787.24	1651.8	-2.012	792.35	1658.8	96.633	789.87	1398	69.928	854.47	1239.5	70.718	746.53	980.27	-106.21	735.68	988.31	260.29	671.43	1482.6	239.52	661.42	1313.9	359.23	693.27	1170.7	415.06	759.3	1033.4	426.7	809.37	925.59	355.11	802.32	928.28	436.89	859.54	860.29	403.85	672.85	1465.8	-112.16	607.63	1303.5	-199.52	561.04	1145.2	-247.43	556.85	1005	-261.81	589.84	873.42	-207.88	536.92	865.5	-261.19	577.51	784.57	-239.83	660.89	687.27	250.99	594.31	360.84	154.98	542.25	281.17	200.65	738.37	756.35	-133.16	803.04	598.94	-107.11	821.19	702.27	-100.65	810.95	518.13	-102.32	838.22	517.31	53.27	921.74	434.83	-54.391	917.98	336.65	-90.027	951.55	356.6	-41.205	1120.4	121.87	-31.955	562.44	280.67	142.58	974.86	273.16	-28.926	596.58	604.54	247.87	531.94	201.12	130.06	1153.1	144.55	-77.527	560.85	499.11	77.88	769.84	678.39	-122.07	658.23	1089.7	318.77	603.24	688.81	262.6	621.92	28.298	139.33	608.54	774.36	277.39	574.76	26.715	102.26	456.16	85.17	62.129	562.17	489.71	232.78	635.3	1576.5	-0.69157	355.22	58.369	95.259	532	1358.4	182.06	1068.5	74.905	-93.084	417.8	79.646	145.93	482.63	1035.4	92.629	988.6	114.18	55.548	533.17	1164.3	60.059	596.57	1479.3	69.051	499.07	1029.4	11.257	956.49	90.079	-23.634	496.73	1101.2	-148.28	934.78	42.665	39.816	657.62	1591.7	145.32
440	2.2	793.69	1650.4	-2.9679	798.78	1657.6	95.664	796.25	1396.8	69.368	860.75	1238.1	70.474	752.88	978.57	-106.21	741.01	987.27	260.62	677.69	1481.6	238.71	667.78	1313.1	358.65	699.71	1170	414.7	766.16	1033	426.25	816.48	925.33	354.59	809.54	928	436.39	866.95	860.21	403.28	679.48	1464.5	-112.88	613.67	1302.4	-200.08	566.35	1144.2	-247.73	561.57	1004	-261.95	594.02	872.38	-207.87	541.02	864.59	-261.13	581.04	783.41	-239.41	664.8	686.3	251.01	596.32	360.13	154.99	543.67	280.81	200.56	744.44	754.91	-132.92	809.43	597.75	-106.29	827.43	701.14	-100.34	817.64	516.89	-101.47	845.04	516.6	54.027	929.46	434.74	-53.802	926.61	336.41	-89.206	960.22	356.84	-40.587	1131.9	124.29	-31.254	563.97	280.16	142.54	984.52	273.66	-28.218	600	603.94	247.84	532.98	200.81	129.99	1164.2	147.29	-76.86	564.05	498.68	77.77	776.09	677.06	-121.56	664.6	1088.9	318.56	607.16	688.17	262.56	622	28.244	139.49	612.95	773.68	277.31	574.8	26.725	102.29	456.52	85.358	61.967	564.87	489.29	232.65	641.75	1575.1	-1.5793	355.38	58.929	94.955	538.26	1357.4	181.29	1080.4	76.324	-92.153	418.06	79.984	145.74	488.66	1034.5	91.823	1000.4	114.94	56.574	539.31	1163.2	59.278	602.98	1478.2	68.245	505.24	1028.3	10.499	968.32	90.312	-22.427	501.98	1100.6	-148.48	947.37	42.657	41.2	664.05	1590.6	144.42
441	2.205	800.16	1649.1	-3.9598	805.23	1656.4	94.659	802.65	1395.4	68.772	867.07	1236.8	70.199	759.27	976.87	-106.19	746.42	986.24	260.91	683.98	1480.6	237.86	674.15	1312.3	358.03	706.15	1169.3	414.29	772.97	1032.6	425.77	823.53	925.05	354.03	816.69	927.7	435.85	874.27	860.11	402.67	686.12	1463.2	-113.65	619.75	1301.2	-200.67	571.73	1143.2	-248.04	566.37	1003	-262.1	598.33	871.31	-207.89	545.24	863.64	-261.08	584.72	782.21	-239.04	668.76	685.31	251.02	598.38	359.41	154.99	545.12	280.46	200.48	750.65	753.55	-132.7	816	596.66	-105.51	833.81	700.11	-100.04	824.52	515.74	-100.67	852.06	515.98	54.725	937.18	434.54	-53.203	935.07	336.09	-88.376	968.72	356.92	-39.936	1142.7	126.28	-30.457	565.53	279.66	142.51	993.82	273.98	-27.464	603.48	603.33	247.82	534.04	200.51	129.93	1174.7	149.54	-76.093	567.31	498.24	77.657	782.5	675.82	-121.09	670.92	1088.1	318.34	611.14	687.52	262.52	622.08	28.194	139.65	617.42	772.99	277.24	574.85	26.734	102.33	456.89	85.573	61.818	567.64	488.86	232.52	648.22	1573.8	-2.5115	355.55	59.536	94.679	544.55	1356.3	180.49	1091.6	77.452	-91.155	418.33	80.351	145.56	494.73	1033.6	91.038	1011.5	115.51	57.641	545.48	1162	58.508	609.41	1477	67.396	511.44	1027.2	9.7561	979.41	90.431	-21.205	507.32	1100	-148.69	959.11	42.583	42.574	670.48	1589.4	143.47
442	2.21	806.63	1647.7	-4.9878	811.68	1655.1	93.618	809.06	1394.1	68.137	873.41	1235.4	69.89	765.7	975.19	-106.17	751.92	985.2	261.14	690.28	1479.6	236.96	680.54	1311.5	357.39	712.58	1168.6	413.86	779.74	1032.1	425.26	830.51	924.74	353.44	823.78	927.38	435.29	881.51	859.97	402.03	692.77	1461.8	-114.45	625.9	1300	-201.29	577.18	1142.2	-248.38	571.26	1001.9	-262.28	602.75	870.2	-207.94	549.58	862.64	-261.06	588.53	780.99	-238.7	672.78	684.32	251.03	600.49	358.69	154.99	546.61	280.11	200.39	757.01	752.27	-132.51	822.78	595.67	-104.79	840.35	699.19	-99.74	831.58	514.68	-99.936	859.27	515.45	55.364	944.9	434.23	-52.588	943.37	335.68	-87.534	977.05	356.85	-39.243	1152.7	127.82	-29.541	567.13	279.16	142.47	1002.8	274.1	-26.654	607.03	602.72	247.79	535.13	200.22	129.88	1184.5	151.28	-75.201	570.62	497.79	77.543	789.09	674.67	-120.65	677.19	1087.3	318.11	615.18	686.85	262.48	622.16	28.146	139.8	621.95	772.28	277.18	574.89	26.743	102.36	457.27	85.816	61.683	570.47	488.43	232.4	654.71	1572.4	-3.4894	355.73	60.194	94.436	550.86	1355.3	179.66	1102.1	78.267	-90.072	418.61	80.75	145.4	500.83	1032.6	90.28	1021.8	115.86	58.752	551.68	1160.8	57.753	615.85	1475.8	66.502	517.68	1026	9.0338	989.75	90.414	-19.968	512.73	1099.3	-148.93	969.97	42.42	43.932	676.93	1588.3	142.48
